<svg width="10" height="10" viewBox="0 0 10 10" fill="none" xmlns="http://www.w3.org/2000/svg">
<path d="M6.012 4.95313L8.97452 1.99061C9.26379 1.70134 9.26379 1.22255 8.97452 0.933279C8.83373 0.79415 8.64378 0.716125 8.44585 0.716125C8.24792 0.716125 8.05797 0.79415 7.91719 0.933279L4.95467 3.8958L1.99215 0.933279C1.85136 0.79415 1.66141 0.716125 1.46348 0.716125C1.26555 0.716125 1.0756 0.79415 0.934817 0.933279C0.645548 1.22255 0.645548 1.70134 0.934817 1.99061L3.89734 4.95313L0.934817 7.91565C0.645548 8.20492 0.645548 8.68371 0.934817 8.97298C1.08444 9.1226 1.27396 9.19242 1.46348 9.19242C1.653 9.19242 1.84252 9.1226 1.99215 8.97298L4.95467 6.01046L7.91719 8.97298C8.06681 9.1226 8.25633 9.19242 8.44585 9.19242C8.63537 9.19242 8.82489 9.1226 8.97452 8.97298C9.26379 8.68371 9.26379 8.20492 8.97452 7.91565L6.012 4.95313Z" fill="#ECECEC"/>
</svg>
